<?xml version="1.0" encoding="UTF-8" standalone="no"?><!DOCTYPE svg PUBLIC "-//W3C//DTD SVG 1.1//EN" "http://www.w3.org/Graphics/SVG/1.1/DTD/svg11.dtd"><svg width="100%" height="100%" viewBox="0 0 160 160" version="1.1" xmlns="http://www.w3.org/2000/svg" xmlns:xlink="http://www.w3.org/1999/xlink" xml:space="preserve" xmlns:serif="http://www.serif.com/" style="fill-rule:evenodd;clip-rule:evenodd;stroke-linejoin:round;stroke-miterlimit:2;"><g><path d="M46.814,96.013c0,0 -2.2,20.052 -5.225,21.232c0,0 -2.475,4.649 -21.107,5.967c0,0 18.494,1.526 21.107,5.551c2.613,4.024 2.063,4.788 5.363,19.913l-0.138,-52.663Z" style="fill:#5879e7;"/><path d="M47.089,96.013c0,0 2.2,20.052 5.225,21.232c0,0 2.475,4.649 21.107,5.967c0,0 -18.494,1.526 -21.107,5.551c-2.613,4.024 -2.063,4.788 -5.363,19.913l0.138,-52.663Z" style="fill:#5879e7;"/><path d="M46.951,96.013c0,0 -1.01,18.977 -2.591,26.331c-1.581,7.355 2.295,16.613 2.591,26.331c0.296,9.719 2.359,-26.331 2.359,-26.331l-2.359,-26.331Z" style="fill:#5879e7;"/><path d="M86.116,99.595c0,0 1.329,-1.691 3.804,1.027c0,0 2.234,2.597 2.536,4.408c0,0 1.57,2.174 -1.389,1.389c0,0 -19.444,-0.845 -17.512,-14.432c0,0 0.181,-9.903 19.807,-15.399c0,0 29.288,-2.778 37.681,4.65c0,0 8.394,5.556 8.454,16.002c0,0 1.57,16.304 -22.826,21.92c0,0 -8.333,1.449 -10.87,0.906c0,0 -3.019,0.181 -2.717,3.14l-0.181,26.389c0,0 0.785,6.28 4.831,6.22l2.717,0l0,1.751l-24.094,0l0,-1.208l2.415,0c0,0 5.495,-1.027 5.556,-8.031l0.483,-61.286c0,0 -1.087,-4.656 -3.08,-5.562c0,0 5.374,0.845 6.401,1.389c0,0 1.268,-0.06 2.717,-0.604c0,0 5.978,-2.717 6.884,-1.449c0,0 -5.556,2.415 -4.65,12.983c0.906,10.568 -0.06,22.041 -0.06,22.041c0,0 -1.087,2.899 3.321,2.415c0,0 7.729,0.543 13.949,-3.623c0,0 10.024,-6.099 10.085,-18.478c0,0 -1.63,-13.829 -10.628,-15.882c-8.998,-2.053 -29.288,-2.295 -33.998,1.812c0,0 -9.662,6.159 -8.756,12.862c0,0 2.476,8.394 9.118,4.65Z" style="fill:#5879e7;"/><path d="M47.287,52.192c0,0 -17.08,5.644 -10.835,16.904c1.199,2.162 4.55,4.962 8.42,6.345c0,0 3.321,0.906 4.891,0.664c0,0 2.959,-0.181 5.072,1.268c0,0 -1.993,-3.925 -0.121,-8.031l8.152,-21.256c0,0 0.725,-2.355 6.582,-2.114c0,0 8.937,-1.812 15.942,6.341l1.147,0.845c0,0 -2.114,-11.413 -21.981,-9.3l10.688,-28.865l17.452,55.676c0,0 0.983,5.332 -2.157,6.781c0,0 -1.939,1.594 -3.388,1.775l0.699,0.893l10.04,-2.867l9.843,-0.242c0,0 -4.287,-0.966 -6.643,-7.307l-6.824,-20.652c0,0 -1.449,-1.993 3.382,-3.261c4.831,-1.268 6.22,-0.906 7.79,-0.604c0,0 -0.06,-2.415 -10.688,-1.208c0,0 -1.691,0.242 -2.114,-2.476l-11.353,-39.07l-8.213,0c0,0 1.147,4.529 0.664,6.22l-20.109,53.623c0,0 -5.858,12.923 -11.594,7.911c0,0 -3.793,-2.966 -2.348,-8.029c0.763,-2.674 2.843,-5.374 7.601,-9.966Z" style="fill:#5879e7;"/></g></svg>